<?xml version="1.0" encoding="UTF-8"?>
<svg id="Layer_2" data-name="Layer 2" xmlns="http://www.w3.org/2000/svg" viewBox="0 0 861.75 289.05">
  <defs>
    <style>
      .cls-1 {
        fill: #fff;
      }

      .cls-2 {
        fill: #0db9b3;
      }
    </style>
  </defs>
  <g id="Layer_1" data-name="Layer 1">
    <g>
      <g>
        <path class="cls-2" d="M111.18,85.36l10.88-8.74c-6.48-8.06-5.19-19.85,2.87-26.32,7.02-5.64,17.46-4.36,24.76-10.23,7.3-5.87,8.29-16.33,15.32-21.97,8.06-6.48,19.85-5.19,26.32,2.87l10.88-8.74c-11.31-14.07-31.88-16.31-45.95-5-7.31,5.87-8.31,16.35-15.32,21.98-7,5.63-17.45,4.36-24.76,10.23-14.07,11.31-16.31,31.88-5,45.95Z"/>
        <path class="cls-2" d="M152.98,75.05l13.94-.68c-.5-10.33,7.46-19.11,17.79-19.61,9-.44,16.68,6.73,26.04,6.28,9.36-.45,16.31-8.34,25.31-8.78,10.33-.5,19.11,7.46,19.61,17.79l13.94-.68c-.88-18.03-16.2-31.93-34.23-31.06-9.36.46-16.33,8.34-25.31,8.78-8.97.44-16.68-6.73-26.04-6.28-18.03.88-31.93,16.2-31.06,34.23Z"/>
        <path class="cls-2" d="M281.11,109.99c-7.84-5.13-18.12-2.85-25.63-7.78s-9.54-15.25-17.38-20.39c-15.1-9.89-35.36-5.66-45.25,9.44l11.68,7.65c5.66-8.65,17.27-11.07,25.92-5.41,7.54,4.94,9.54,15.25,17.38,20.39,7.84,5.13,18.09,2.84,25.63,7.78,8.65,5.66,11.07,17.27,5.41,25.92l11.68,7.65c9.89-15.1,5.66-35.36-9.44-45.25Z"/>
        <path class="cls-2" d="M259.81,173.51c-3.19-8.4,1.25-17.94-2.08-26.71-6.4-16.88-25.28-25.36-42.15-18.96l4.95,13.05c9.67-3.67,20.48,1.19,24.15,10.86,3.2,8.42-1.25,17.95,2.08,26.71,3.32,8.76,12.97,12.93,16.17,21.36,3.67,9.67-1.19,20.48-10.86,24.15l4.95,13.05c16.88-6.4,25.37-25.28,18.96-42.15-3.32-8.76-12.98-12.96-16.17-21.36Z"/>
        <path class="cls-2" d="M212.47,170.78l-3.66,13.47c9.98,2.71,15.87,13,13.15,22.98-2.37,8.69-11.56,13.79-14.02,22.82-2.46,9.04,2.89,18.09.53,26.78-2.71,9.98-13,15.87-22.98,13.15l-3.66,13.47c17.42,4.74,35.38-5.54,40.12-22.96,2.46-9.04-2.88-18.11-.53-26.78,2.36-8.67,11.56-13.78,14.02-22.82,4.74-17.42-5.54-35.38-22.96-40.11Z"/>
        <path class="cls-2" d="M184.72,203.69l-10.88,8.74c6.48,8.06,5.2,19.85-2.87,26.32-7.02,5.64-17.46,4.36-24.76,10.23-7.3,5.87-8.29,16.33-15.32,21.97-8.06,6.48-19.85,5.19-26.32-2.87l-10.88,8.74c11.31,14.07,31.88,16.31,45.95,5,7.3-5.87,8.31-16.35,15.32-21.97,7-5.63,17.45-4.36,24.76-10.23,14.07-11.31,16.31-31.88,5-45.95Z"/>
        <path class="cls-2" d="M142.92,214l-13.94.68c.5,10.33-7.46,19.11-17.79,19.61-9,.44-16.68-6.73-26.04-6.28-9.36.46-16.31,8.34-25.31,8.78-10.33.5-19.11-7.46-19.61-17.79l-13.94.68c.88,18.03,16.2,31.93,34.23,31.06,9.36-.46,16.33-8.34,25.31-8.78,8.97-.44,16.68,6.73,26.04,6.28,18.03-.88,31.93-16.2,31.06-34.23Z"/>
        <path class="cls-2" d="M57.79,207.22c15.1,9.89,35.36,5.66,45.25-9.44l-11.68-7.65c-5.66,8.65-17.27,11.07-25.92,5.41-7.54-4.94-9.54-15.25-17.38-20.39-7.84-5.13-18.09-2.84-25.63-7.78-8.65-5.66-11.07-17.27-5.41-25.92l-11.68-7.65c-9.89,15.1-5.66,35.36,9.44,45.25,7.84,5.13,18.12,2.85,25.63,7.78,7.52,4.92,9.54,15.25,17.38,20.39Z"/>
        <path class="cls-2" d="M36.09,115.55c3.19,8.4-1.25,17.94,2.08,26.71,6.41,16.88,25.28,25.36,42.15,18.96l-4.95-13.05c-9.67,3.67-20.48-1.19-24.15-10.86-3.2-8.42,1.25-17.95-2.08-26.71-3.32-8.76-12.97-12.93-16.17-21.36-3.67-9.67,1.19-20.48,10.86-24.15l-4.95-13.05c-16.88,6.41-25.36,25.28-18.96,42.15,3.33,8.76,12.98,12.96,16.17,21.36Z"/>
        <path class="cls-2" d="M83.43,118.27l3.66-13.47c-9.98-2.71-15.87-13-13.15-22.98,2.37-8.69,11.56-13.79,14.02-22.82,2.46-9.04-2.89-18.09-.53-26.78,2.71-9.98,13-15.87,22.98-13.15l3.66-13.47c-17.42-4.74-35.38,5.54-40.12,22.96-2.46,9.04,2.88,18.11.53,26.78-2.36,8.67-11.56,13.78-14.02,22.82-4.74,17.42,5.54,35.38,22.96,40.11Z"/>
      </g>
      <g>
        <path class="cls-1" d="M378.46,233.36c-2.35-1.76-5.45-2.68-9.48-2.68h-.75l-.17-.42c2.85-2.85,5.96-6.04,9.31-9.73l13.59-14.51h-13.17l-12.5,13.59c-5.87,6.29-10.32,11.41-13.51,15.35l-.5-.08.34-28.86h-10.91v58.72h10.91v-16.69l5.13-5.44c2.13-2.26,5.1-3.54,8.21-3.54,2.6,0,4.53.5,5.87,1.43,1.26,1.01,2.43,2.77,3.52,5.45l6.88,18.79h11.33l-8.47-22.82c-1.51-3.94-3.36-6.8-5.62-8.56Z"/>
        <rect class="cls-1" x="395.69" y="206.01" width="10.23" height="58.72"/>
        <path class="cls-1" d="M393.48,127.58c-2.52-4.61-5.96-8.14-10.4-10.65-4.45-2.52-9.56-3.78-15.35-3.78s-11.07,1.26-15.52,3.78c-4.45,2.52-7.89,6.04-10.32,10.65-2.52,4.61-3.69,9.98-3.69,16.19s1.17,11.66,3.69,16.36c2.43,4.7,5.87,8.22,10.32,10.74,4.45,2.52,9.65,3.69,15.52,3.69s10.91-1.17,15.35-3.69c4.45-2.52,7.89-6.04,10.4-10.74,2.43-4.61,3.69-10.07,3.69-16.36s-1.26-11.58-3.69-16.19ZM380.9,159.88c-3.27,3.86-7.64,5.71-13.17,5.71-5.54,0-9.98-1.85-13.25-5.71-3.35-3.78-4.95-9.14-4.95-16.11s1.59-12.08,4.95-15.94c3.27-3.78,7.72-5.71,13.25-5.71s9.82,1.93,13.17,5.71c3.27,3.86,4.95,9.14,4.95,15.94s-1.68,12.33-4.95,16.11Z"/>
        <path class="cls-1" d="M485.49,89.25c0,3.36,1.68,5.96,5.12,7.72,3.36,1.76,8.89,2.6,16.61,2.6,7.21,0,12.75-1.09,16.53-3.44,3.78-2.35,5.71-5.79,5.71-10.32s-1.43-7.8-4.19-9.82c-2.85-2.01-6.88-3.02-12.08-3.1l-11.74-.08c-1.76,0-3.19-.34-4.19-1.01-1.01-.67-1.51-1.68-1.51-2.85,0-1.01.25-1.76.92-2.43.59-.67,1.59-1.18,2.94-1.59,2.01.59,4.36.84,7.13.84,5.7,0,10.23-1.26,13.59-3.94,3.36-2.6,5.03-6.12,5.03-10.57,0-3.19-1.01-6.04-3.02-8.39-2.01-2.35-4.61-3.94-7.97-4.87l.17-.5,15.27,2.43v-8.05c-9.9,2.1-18.04,3.69-24.33,4.7-6.29,1.01-10.74,2.77-13.42,5.2s-3.94,5.62-3.94,9.48c0,3.1.76,5.79,2.43,8.05,1.68,2.26,4.03,3.94,7.13,5.03v.34c-3.19.17-5.79.84-7.72,2.1-1.93,1.34-2.85,3.27-2.85,5.79,0,2.18.84,3.94,2.52,5.45,1.68,1.51,4.03,2.43,7.22,2.68v.42c-7.55.59-11.33,3.27-11.33,8.14ZM500.09,46.47c1.59-1.26,3.78-1.93,6.63-1.93s4.95.67,6.54,1.93c1.51,1.26,2.35,2.85,2.35,4.78,0,2.1-.84,3.77-2.35,5.12-1.59,1.34-3.78,1.93-6.54,1.93s-5.03-.59-6.63-1.93c-1.59-1.34-2.35-3.02-2.35-5.12,0-1.93.75-3.52,2.35-4.78ZM499.83,80.78h12.92c2.52,0,4.28.5,5.45,1.34,1.17.84,1.76,2.18,1.76,3.94,0,2.01-1.01,3.44-2.94,4.45-1.93,1.01-5.2,1.43-9.73,1.43-8.64,0-12.92-1.85-12.92-5.7,0-2.68,1.76-4.45,5.45-5.45Z"/>
        <path class="cls-1" d="M573.57,136.47v-6.54h-12.25l-.34-11.33h-9.73v11.33h-7.05v6.54h7.05v25.17c0,3.19.42,5.62,1.43,7.3,1.01,1.76,2.52,3.02,4.53,3.69,2.01.67,4.78,1.09,8.22,1.09,2.01,0,4.78-.08,8.14-.42v-8.05c-2.18.17-4.11.25-5.79.25-2.52,0-4.19-.34-5.03-1.09-.84-.67-1.26-2.1-1.26-4.28v-23.66h12.08Z"/>
        <path class="cls-1" d="M541.11,81.12c2.35,1.34,5.03,1.93,8.05,1.93,4.03,0,7.47-1.26,10.4-3.86,2.94-2.6,4.7-6.04,5.28-10.4h.5l.42,12.92h6.38v.34c-4.11.67-7.3,1.93-9.65,3.69-2.35,1.85-3.44,3.86-3.44,6.12,0,4.87,3.78,7.21,11.33,7.21,1.43,0,3.19-.08,5.29-.42v-6.21c-1.34.17-2.52.25-3.52.25-1.59,0-2.77-.25-3.61-.76-.84-.5-1.26-1.34-1.26-2.52,0-2.52,2.77-5.12,8.3-7.72v-43.29h-10.23v22.48c0,4.28-1.09,7.63-3.1,10.15-2.1,2.52-4.87,3.69-8.3,3.69-3.36,0-5.87-.92-7.72-2.94-1.85-1.93-2.69-4.7-2.69-8.3v-25.08h-10.23v28.27c0,3.36.67,6.29,2.1,8.72,1.34,2.52,3.27,4.36,5.7,5.7Z"/>
        <path class="cls-1" d="M383.66,77.25c3.52-3.02,5.37-7.13,5.37-12.5,0-4.11-1.51-7.55-4.36-10.32-2.94-2.68-6.96-4.19-12.16-4.45v-.59c4.7-.17,8.31-1.34,10.99-3.69,2.68-2.35,4.03-5.37,4.03-9.23,0-4.19-1.59-7.47-4.61-9.9-3.1-2.35-7.3-3.61-12.58-3.61h-29.61v58.72h28.02c6.38,0,11.33-1.43,14.93-4.45ZM351.62,31.87h15.94c2.77,0,4.95.67,6.54,2.01,1.51,1.34,2.35,3.19,2.35,5.54,0,2.68-1.01,4.78-2.94,6.29-2.01,1.51-4.61,2.27-7.97,2.27h-13.93v-16.11ZM351.62,72.81v-16.61h15.1c3.36,0,6.12.76,8.14,2.27,2.01,1.51,3.02,3.44,3.02,5.96s-.92,4.61-2.68,6.12c-1.85,1.51-4.19,2.27-7.21,2.27h-16.36Z"/>
        <path class="cls-1" d="M542.72,173.22v-28.27c0-3.35-.76-6.21-2.1-8.72-1.34-2.43-3.27-4.28-5.62-5.62-2.43-1.34-5.12-2.01-8.05-2.01-4.03,0-7.55,1.34-10.49,3.94-3.02,2.6-4.78,6.04-5.28,10.32h-.5l-.33-12.92h-9.9v43.29h10.23v-22.48c0-4.19,1.01-7.55,3.1-10.07,2.01-2.52,4.78-3.78,8.3-3.78,3.19,0,5.79,1.01,7.63,3.02,1.85,2.01,2.85,4.78,2.85,8.22v25.08h10.15Z"/>
        <path class="cls-1" d="M417.06,58.13c-2.18.34-5.03.5-8.72.42-5.79,0-10.15,1.09-13.09,3.27-2.94,2.27-4.36,5.37-4.36,9.23s1.34,6.88,4.03,8.89c2.68,2.1,6.29,3.1,10.65,3.1s8.47-1.26,11.66-3.86c3.19-2.52,5.03-6.29,5.54-11.24h.42l.42,13.76h9.65v-27.77c0-4.95-1.68-8.98-4.95-12.16-3.36-3.1-8.47-4.7-15.35-4.7-4.53,0-8.47.84-11.66,2.52-3.27,1.68-5.7,3.86-7.38,6.63-1.68,2.77-2.6,5.79-2.68,9.14h10.15c.25-3.02,1.34-5.45,3.27-7.38,1.93-1.93,4.7-2.94,8.31-2.94s6.04.76,7.72,2.18c1.68,1.51,2.52,3.19,2.52,5.12,0,1.68-.5,3.02-1.51,3.86-1.01.92-2.52,1.59-4.61,1.93ZM423.18,56.37v6.63c0,2.18-.67,4.28-1.85,6.29-1.26,2.01-2.94,3.61-5.12,4.86-2.18,1.26-4.53,1.85-7.13,1.85s-4.53-.5-5.79-1.51c-1.34-1.01-1.93-2.43-1.93-4.36,0-1.68.59-3.1,1.76-4.11,1.17-1.01,2.77-1.51,4.78-1.68,3.69-.17,6.54-.5,8.56-1.17,2.01-.59,3.52-1.43,4.45-2.52.92-1.01,1.51-2.43,1.85-4.28h.42Z"/>
        <rect class="cls-1" x="413.11" y="221.45" width="10.23" height="43.29"/>
        <path class="cls-1" d="M449.7,59.22c0-4.19,1.01-7.55,3.1-10.07,2.01-2.52,4.78-3.78,8.3-3.78,3.19,0,5.79,1.01,7.63,3.02,1.85,2.01,2.85,4.78,2.85,8.22v25.08h10.15v-28.27c0-3.36-.76-6.21-2.1-8.72-1.34-2.43-3.27-4.28-5.62-5.62-2.43-1.34-5.12-2.01-8.05-2.01-4.03,0-7.55,1.34-10.49,3.94-3.02,2.6-4.78,6.04-5.28,10.32h-.5l-.34-12.92h-9.9v43.29h10.23v-22.48Z"/>
        <path class="cls-1" d="M485.28,202.91c-1.76,0-3.27.67-4.45,1.85-1.17,1.26-1.76,2.68-1.76,4.36s.59,3.19,1.76,4.36c1.17,1.17,2.68,1.76,4.45,1.76s3.19-.59,4.36-1.76c1.17-1.17,1.76-2.6,1.76-4.36s-.59-3.19-1.76-4.36c-1.17-1.17-2.68-1.85-4.36-1.85Z"/>
        <path class="cls-1" d="M418.22,202.91c-1.76,0-3.27.67-4.45,1.85-1.17,1.26-1.76,2.68-1.76,4.36s.59,3.19,1.76,4.36c1.17,1.17,2.68,1.76,4.45,1.76s3.19-.59,4.36-1.76c1.17-1.17,1.76-2.6,1.76-4.36s-.59-3.19-1.76-4.36c-1.17-1.17-2.68-1.85-4.36-1.85Z"/>
        <path class="cls-1" d="M742.31,123.72c1.68,0,3.19-.59,4.36-1.76,1.17-1.17,1.76-2.6,1.76-4.36s-.59-3.19-1.76-4.36c-1.17-1.17-2.68-1.85-4.36-1.85-1.76,0-3.27.67-4.45,1.85-1.17,1.26-1.76,2.68-1.76,4.36s.59,3.19,1.76,4.36c1.17,1.17,2.68,1.76,4.45,1.76Z"/>
        <path class="cls-1" d="M674.74,131.44c-3.52-1.85-7.47-2.85-11.66-2.85s-8.14,1.01-11.66,2.85c-3.52,1.85-6.38,4.53-8.47,7.97-2.1,3.52-3.1,7.47-3.1,12s1.01,8.72,3.1,12.25c2.01,3.52,4.87,6.21,8.39,8.05,3.52,1.93,7.47,2.85,11.74,2.85s8.14-.92,11.66-2.85c3.52-1.85,6.38-4.53,8.47-8.05,2.1-3.52,3.19-7.55,3.19-12.25s-1.09-8.47-3.19-12c-2.1-3.44-4.95-6.12-8.47-7.97ZM672.56,162.57c-2.35,2.68-5.45,3.94-9.48,3.94s-7.13-1.26-9.48-3.94c-2.35-2.6-3.44-6.29-3.44-11.16s1.09-8.3,3.44-10.91c2.35-2.52,5.45-3.86,9.48-3.86s7.13,1.34,9.48,3.86c2.35,2.6,3.52,6.21,3.52,10.91s-1.17,8.56-3.52,11.16Z"/>
        <path class="cls-1" d="M757.91,175.74c0,1.51-.17,2.6-.5,3.27-.34.67-1.01,1.17-1.93,1.51s-2.35.42-4.19.42c-1.17,0-2.18,0-2.85-.08v7.89c2.35.17,3.94.17,4.95.17,3.86,0,6.8-.42,8.89-1.26,2.1-.84,3.61-2.27,4.45-4.11.84-1.85,1.34-4.45,1.34-7.8v-45.8h-10.15v45.8Z"/>
        <path class="cls-1" d="M694.91,133.28c-2.68,2.43-3.94,5.62-3.94,9.48,0,3.1.76,5.79,2.43,8.05s4.03,3.94,7.13,5.03v.33c-3.19.17-5.79.84-7.72,2.1-1.93,1.34-2.85,3.27-2.85,5.79,0,2.18.84,3.94,2.52,5.45,1.68,1.51,4.03,2.43,7.22,2.68v.42c-7.55.59-11.33,3.27-11.33,8.14,0,3.36,1.68,5.96,5.12,7.72,3.36,1.76,8.89,2.6,16.61,2.6,7.21,0,12.75-1.09,16.53-3.44,3.78-2.35,5.71-5.79,5.71-10.32s-1.43-7.8-4.19-9.82c-2.85-2.01-6.88-3.02-12.08-3.1l-11.74-.08c-1.76,0-3.19-.33-4.19-1.01-1.01-.67-1.51-1.68-1.51-2.85,0-1.01.25-1.76.92-2.43.59-.67,1.59-1.17,2.94-1.59,2.01.59,4.36.84,7.13.84,5.7,0,10.23-1.26,13.59-3.94,3.36-2.6,5.03-6.12,5.03-10.57,0-3.19-1.01-6.04-3.02-8.39-2.01-2.35-4.61-3.94-7.97-4.87l.17-.5,15.27,2.43v-8.05c-9.9,2.1-18.04,3.69-24.33,4.7-6.29,1.01-10.74,2.77-13.42,5.2ZM702.71,172.29h12.92c2.52,0,4.28.5,5.45,1.34,1.17.84,1.76,2.18,1.76,3.94,0,2.01-1.01,3.44-2.94,4.45-1.93,1.01-5.2,1.43-9.73,1.43-8.64,0-12.92-1.85-12.92-5.71,0-2.68,1.76-4.45,5.45-5.45ZM716.13,137.98c1.51,1.26,2.35,2.85,2.35,4.78,0,2.1-.84,3.78-2.35,5.12-1.59,1.34-3.78,1.93-6.54,1.93s-5.03-.59-6.63-1.93c-1.59-1.34-2.35-3.02-2.35-5.12,0-1.93.75-3.52,2.35-4.78,1.59-1.26,3.78-1.93,6.63-1.93s4.95.67,6.54,1.93Z"/>
        <path class="cls-1" d="M763.03,111.39c-1.76,0-3.27.67-4.45,1.85-1.17,1.26-1.76,2.68-1.76,4.36s.59,3.19,1.76,4.36c1.17,1.17,2.68,1.76,4.45,1.76,1.68,0,3.19-.59,4.36-1.76,1.17-1.17,1.76-2.6,1.76-4.36s-.59-3.19-1.76-4.36c-1.17-1.17-2.68-1.85-4.36-1.85Z"/>
        <path class="cls-1" d="M858.65,153.42c-2.1-1.93-5.28-3.36-9.48-4.36l-11.41-2.43c-1.85-.34-3.19-1.01-4.19-1.93-1.01-.84-1.43-1.93-1.43-3.1,0-1.68.76-3.02,2.43-4.03,1.59-1.01,3.86-1.51,6.71-1.51,3.1,0,5.54.75,7.3,2.18,1.76,1.43,2.68,3.36,2.68,5.79h9.81c0-4.87-1.84-8.64-5.37-11.33-3.52-2.68-8.47-4.11-14.77-4.11-5.79,0-10.4,1.26-13.76,3.61-3.44,2.43-5.12,5.62-5.12,9.65,0,3.19,1.09,5.87,3.27,7.89,2.18,2.1,5.37,3.52,9.4,4.36l10.91,2.35c2.18.5,3.69,1.17,4.61,1.93.84.76,1.34,1.76,1.34,3.1,0,1.76-.84,3.1-2.52,4.11-1.68,1.01-3.86,1.51-6.71,1.51-3.52,0-6.21-.67-8.14-2.01-1.93-1.34-2.94-3.36-3.1-5.96h-10.07c.17,5.03,2.01,8.81,5.71,11.49,3.69,2.68,8.81,3.94,15.52,3.94,6.04,0,10.82-1.17,14.26-3.52,3.44-2.35,5.2-5.7,5.2-9.98,0-3.19-1.09-5.7-3.1-7.63Z"/>
        <path class="cls-1" d="M808.45,131.44c-3.52-1.85-7.47-2.85-11.66-2.85s-8.14,1.01-11.66,2.85c-3.52,1.85-6.38,4.53-8.47,7.97-2.1,3.52-3.1,7.47-3.1,12s1.01,8.72,3.1,12.25c2.01,3.52,4.87,6.21,8.39,8.05,3.52,1.93,7.47,2.85,11.74,2.85s8.14-.92,11.66-2.85c3.52-1.85,6.38-4.53,8.47-8.05s3.19-7.55,3.19-12.25-1.09-8.47-3.19-12c-2.1-3.44-4.95-6.12-8.47-7.97ZM806.27,162.57c-2.35,2.68-5.45,3.94-9.48,3.94s-7.13-1.26-9.48-3.94c-2.35-2.6-3.44-6.29-3.44-11.16s1.09-8.3,3.44-10.91c2.35-2.52,5.45-3.86,9.48-3.86s7.13,1.34,9.48,3.86c2.35,2.6,3.52,6.21,3.52,10.91s-1.17,8.56-3.52,11.16Z"/>
        <rect class="cls-1" x="737.2" y="129.93" width="10.24" height="43.29"/>
        <rect class="cls-1" x="625.36" y="114.49" width="10.23" height="58.72"/>
        <rect class="cls-1" x="480.17" y="221.45" width="10.23" height="43.29"/>
        <path class="cls-1" d="M484.48,131.44c-3.52-1.85-7.47-2.85-11.66-2.85s-8.14,1.01-11.66,2.85c-3.52,1.85-6.38,4.53-8.47,7.97-2.1,3.52-3.1,7.47-3.1,12s1.01,8.72,3.1,12.25c2.01,3.52,4.87,6.21,8.39,8.05,3.52,1.93,7.47,2.85,11.74,2.85s8.14-.92,11.66-2.85c3.52-1.85,6.38-4.53,8.47-8.05s3.19-7.55,3.19-12.25-1.09-8.47-3.19-12c-2.1-3.44-4.95-6.12-8.47-7.97ZM482.3,162.57c-2.35,2.68-5.45,3.94-9.48,3.94s-7.13-1.26-9.48-3.94c-2.35-2.6-3.44-6.29-3.44-11.16s1.09-8.3,3.44-10.91c2.35-2.52,5.45-3.86,9.48-3.86s7.13,1.34,9.48,3.86c2.35,2.6,3.52,6.21,3.52,10.91s-1.17,8.56-3.52,11.16Z"/>
        <path class="cls-1" d="M435.06,161.14l.34,12.08h9.9v-58.72h-10.23v27.77h-.42c-1.17-4.36-3.19-7.72-6.04-10.07-2.85-2.35-6.21-3.52-9.9-3.52s-6.96,1.01-9.82,2.85c-2.85,1.93-5.03,4.61-6.63,8.05-1.59,3.52-2.35,7.55-2.35,12.08s.75,8.64,2.35,12.08c1.59,3.52,3.78,6.21,6.63,8.05,2.85,1.93,6.12,2.85,9.82,2.85s7.05-1.17,9.9-3.52c2.85-2.35,4.86-5.62,6.04-9.98h.42ZM422.64,167.09c-3.78,0-6.8-1.34-9.06-4.11-2.27-2.77-3.36-6.54-3.36-11.33s1.09-8.47,3.36-11.24c2.26-2.77,5.28-4.19,9.06-4.19s6.63,1.26,8.98,3.77c2.27,2.52,3.44,5.54,3.44,9.23v4.95c0,3.69-1.17,6.8-3.44,9.23-2.35,2.52-5.28,3.69-8.98,3.69Z"/>
        <path class="cls-1" d="M465.2,222.12c-2.43-1.34-5.12-2.01-8.05-2.01-4.03,0-7.55,1.34-10.49,3.94-3.02,2.6-4.78,6.04-5.28,10.32h-.5l-.34-12.92h-9.9v43.29h10.23v-22.48c0-4.19,1.01-7.55,3.1-10.07,2.01-2.52,4.78-3.78,8.3-3.78,3.19,0,5.79,1.01,7.63,3.02,1.85,2.01,2.85,4.78,2.85,8.22v25.08h10.15v-28.27c0-3.35-.76-6.21-2.1-8.72-1.34-2.43-3.27-4.28-5.62-5.62Z"/>
        <path class="cls-1" d="M529.66,241.92c-1.85-1.51-4.28-2.35-7.3-2.43h-1.43l-.08-.34c2.01-1.51,5.45-4.61,10.32-9.31l8.73-8.39h-12l-9.9,9.31c-.42.42-1.17,1.17-2.35,2.26-1.17,1.17-2.43,2.43-3.77,3.86-1.34,1.51-2.69,3.19-4.03,5.12l-.42-.17c.17-4.45.34-9.56.34-15.35v-20.47h-10.07v58.72h10.07v-12.33l3.02-2.89c1.83-1.75,4.26-2.73,6.79-2.73,2.1,0,3.69.59,4.87,1.59,1.17,1.09,2.18,2.77,3.02,5.12l4.03,11.24h10.49l-6.04-16.27c-1.01-2.85-2.43-5.03-4.28-6.54Z"/>
        <path class="cls-1" d="M609.48,131.44c-3.52-1.85-7.47-2.85-11.66-2.85s-8.14,1.01-11.66,2.85c-3.52,1.85-6.38,4.53-8.47,7.97-2.1,3.52-3.1,7.47-3.1,12s1.01,8.72,3.1,12.25c2.01,3.52,4.87,6.21,8.39,8.05,3.52,1.93,7.47,2.85,11.74,2.85s8.14-.92,11.66-2.85c3.52-1.85,6.37-4.53,8.47-8.05s3.19-7.55,3.19-12.25-1.09-8.47-3.19-12c-2.1-3.44-4.95-6.12-8.47-7.97ZM607.3,162.57c-2.35,2.68-5.45,3.94-9.48,3.94s-7.13-1.26-9.48-3.94c-2.35-2.6-3.44-6.29-3.44-11.16s1.09-8.3,3.44-10.91c2.35-2.52,5.45-3.86,9.48-3.86s7.13,1.34,9.48,3.86c2.35,2.6,3.52,6.21,3.52,10.91s-1.17,8.56-3.52,11.16Z"/>
        <path class="cls-1" d="M561.75,220.1c-4.53,0-8.47.84-11.66,2.52-3.27,1.68-5.7,3.86-7.38,6.63-1.68,2.77-2.6,5.79-2.68,9.14h10.15c.25-3.02,1.34-5.45,3.27-7.38,1.93-1.93,4.7-2.94,8.31-2.94s6.04.76,7.72,2.18c1.68,1.51,2.52,3.19,2.52,5.12,0,1.68-.5,3.02-1.51,3.86-1.01.92-2.52,1.59-4.62,1.93-2.18.34-5.03.5-8.72.42-5.79,0-10.15,1.09-13.09,3.27-2.94,2.26-4.36,5.37-4.36,9.23s1.34,6.88,4.03,8.89c2.69,2.1,6.29,3.1,10.65,3.1s8.47-1.26,11.66-3.86c3.19-2.52,5.03-6.29,5.54-11.24h.42l.42,13.76h9.65v-27.77c0-4.95-1.68-8.98-4.95-12.16-3.36-3.1-8.47-4.7-15.35-4.7ZM571.99,246.03c0,2.18-.67,4.28-1.85,6.29-1.26,2.01-2.94,3.61-5.12,4.87-2.18,1.26-4.53,1.85-7.13,1.85s-4.53-.5-5.79-1.51c-1.34-1.01-1.93-2.43-1.93-4.36,0-1.68.59-3.1,1.76-4.11,1.17-1.01,2.77-1.51,4.78-1.68,3.69-.17,6.54-.5,8.56-1.17,2.01-.59,3.52-1.43,4.45-2.52.92-1.01,1.51-2.43,1.85-4.28h.42v6.63Z"/>
      </g>
    </g>
  </g>
</svg>