<?xml version="1.0" encoding="UTF-8"?>
<svg id="Layer_2" data-name="Layer 2" xmlns="http://www.w3.org/2000/svg" viewBox="0 0 609.68 595.71">
  <defs>
    <style>
      .cls-1 {
        fill: none;
        stroke: #0db9b3;
        stroke-miterlimit: 10;
        stroke-width: 5.56px;
      }
    </style>
  </defs>
  <g id="Layer_1" data-name="Layer 1">
    <g>
      <path class="cls-1" d="M229.78,177.05l22.22-17.85c-13.23-16.46-10.6-40.52,5.85-53.74,14.34-11.52,35.64-8.9,50.55-20.88,14.91-11.98,16.93-33.34,31.27-44.87,16.46-13.22,40.52-10.6,53.74,5.85l22.22-17.85c-23.09-28.73-65.09-33.3-93.81-10.22-14.91,11.98-16.97,33.38-31.27,44.87-14.3,11.49-35.63,8.89-50.55,20.88-28.73,23.08-33.3,65.09-10.22,93.81Z"/>
      <path class="cls-1" d="M315.12,156l28.47-1.38c-1.02-21.09,15.24-39.01,36.32-40.04,18.38-.89,34.06,13.75,53.16,12.82,19.1-.93,33.29-17.02,51.67-17.92,21.09-1.03,39.02,15.24,40.04,36.33l28.47-1.38c-1.79-36.81-33.08-65.2-69.89-63.41-19.11.93-33.35,17.03-51.67,17.92-18.32.89-34.05-13.75-53.16-12.82-36.81,1.79-65.2,33.08-63.41,69.89Z"/>
      <path class="cls-1" d="M576.72,227.35c-16.01-10.48-36.99-5.83-52.33-15.87-15.35-10.05-19.47-31.14-35.47-41.62-30.83-20.19-72.19-11.56-92.38,19.27l23.85,15.61c11.57-17.66,35.26-22.61,52.92-11.04,15.39,10.08,19.48,31.14,35.48,41.62,16,10.48,36.94,5.8,52.33,15.87,17.66,11.57,22.61,35.26,11.04,52.92l23.84,15.61c20.19-30.83,11.56-72.19-19.27-92.38Z"/>
      <path class="cls-1" d="M533.23,357.02c-6.51-17.15,2.55-36.63-4.24-54.52-13.08-34.45-51.61-51.78-86.07-38.71l10.11,26.65c19.74-7.49,41.81,2.43,49.3,22.17,6.53,17.2-2.55,36.64,4.24,54.52,6.78,17.88,26.48,26.4,33.01,43.6,7.49,19.74-2.44,41.81-22.17,49.31l10.11,26.65c34.46-13.08,51.79-51.61,38.71-86.07-6.79-17.89-26.5-26.45-33.01-43.61Z"/>
      <path class="cls-1" d="M436.58,351.46l-7.48,27.5c20.37,5.54,32.39,26.55,26.85,46.92-4.83,17.75-23.6,28.15-28.62,46.6-5.02,18.45,5.9,36.92,1.07,54.68-5.54,20.37-26.55,32.39-46.92,26.85l-7.48,27.5c35.56,9.67,72.23-11.31,81.9-46.88,5.02-18.46-5.89-36.98-1.07-54.68,4.82-17.7,23.6-28.14,28.62-46.6,9.67-35.56-11.32-72.23-46.88-81.9Z"/>
      <path class="cls-1" d="M379.91,418.65l-22.22,17.85c13.22,16.46,10.6,40.52-5.85,53.74-14.34,11.52-35.64,8.9-50.55,20.88-14.91,11.98-16.93,33.34-31.27,44.87-16.46,13.22-40.52,10.6-53.75-5.85l-22.22,17.85c23.08,28.73,65.09,33.3,93.81,10.22,14.91-11.99,16.97-33.38,31.27-44.87,14.3-11.49,35.63-8.89,50.55-20.88,28.73-23.09,33.3-65.09,10.22-93.81Z"/>
      <path class="cls-1" d="M294.57,439.71l-28.47,1.39c1.03,21.09-15.24,39.01-36.32,40.04-18.38.89-34.06-13.75-53.16-12.82s-33.29,17.02-51.67,17.92c-21.09,1.02-39.01-15.24-40.04-36.33l-28.47,1.38c1.79,36.81,33.08,65.2,69.89,63.41,19.11-.93,33.35-17.03,51.67-17.92,18.32-.89,34.05,13.75,53.16,12.82,36.81-1.79,65.2-33.08,63.41-69.89Z"/>
      <path class="cls-1" d="M120.77,425.85c30.83,20.19,72.19,11.56,92.38-19.27l-23.84-15.61c-11.57,17.66-35.26,22.61-52.92,11.04-15.39-10.08-19.48-31.14-35.48-41.62-16-10.48-36.94-5.8-52.33-15.87-17.66-11.57-22.61-35.26-11.04-52.92l-23.84-15.61c-20.19,30.83-11.56,72.19,19.27,92.38,16.01,10.48,36.99,5.83,52.33,15.87,15.35,10.05,19.47,31.14,35.48,41.62Z"/>
      <path class="cls-1" d="M76.45,238.69c6.51,17.15-2.55,36.63,4.24,54.52,13.08,34.45,51.61,51.78,86.06,38.71l-10.11-26.65c-19.74,7.49-41.81-2.43-49.3-22.17-6.53-17.2,2.55-36.64-4.24-54.52-6.79-17.88-26.48-26.4-33.01-43.6-7.49-19.74,2.44-41.81,22.18-49.31l-10.11-26.65c-34.45,13.08-51.79,51.61-38.71,86.07,6.79,17.89,26.5,26.45,33.01,43.6Z"/>
      <path class="cls-1" d="M173.11,244.25l7.48-27.5c-20.37-5.54-32.4-26.55-26.85-46.92,4.83-17.75,23.6-28.15,28.62-46.6,5.02-18.45-5.9-36.93-1.07-54.68,5.54-20.37,26.55-32.4,46.92-26.85l7.48-27.5c-35.56-9.67-72.23,11.31-81.9,46.88-5.02,18.46,5.89,36.98,1.07,54.68-4.81,17.7-23.6,28.14-28.62,46.6-9.67,35.56,11.32,72.23,46.88,81.9Z"/>
    </g>
  </g>
</svg>